# xmcd
#
# Track frame offsets:
#	150
#	22750
#	45300
#	64150
#	90362
#	110625
#	130650
#	150600
#	165087
#	183825
#
# Disc length: 2815 seconds
#
# Revision: 1
# Processed by: cddbd v1.5.2PL0 Copyright (c) Steve Scherf et al.
# Submitted via: EZCDAudioConverter 8.0.2.1
#
DISCID=650afd0a
DTITLE=Various Artist - Bão Tình
DYEAR=1993
DGENRE=World Pop
TTITLE0=Don Ho - Cơn mưa hạ
TTITLE1=Lâm Thúy Vân - Chỉ có anh trong tim
TTITLE2=Los Ninis - Tình trong cơn mơ say
TTITLE3=Kenny Thái - Bão Tình
TTITLE4=Los Ninis - Đến bên em
TTITLE5=Don Ho - Yêu người khôn nguôi
TTITLE6=Lâm Thúy Vân - Phố mưa
TTITLE7=Kenny Thái - Thú đau thương
TTITLE8=Los Ninis - Nhạc NQ
TTITLE9=Thai Tai - Vết thù trên lưng ngựa hoang
EXTD=
EXTT0=
EXTT1=
EXTT2=
EXTT3=
EXTT4=
EXTT5=
EXTT6=
EXTT7=
EXTT8=
EXTT9=
PLAYORDER=
